<svg id="visual" viewBox="0 0 900 600" width="900" height="600" xmlns="http://www.w3.org/2000/svg" xmlns:xlink="http://www.w3.org/1999/xlink" version="1.1"><g transform="translate(429.672335041134 302.21706435255487)"><path d="M121.4 -205C142.7 -197.9 135.4 -135.9 155.8 -92.6C176.1 -49.3 224.1 -24.7 220 -2.3C216 20 159.9 40 135.5 76.2C111.1 112.5 118.3 164.9 101 187.1C83.7 209.2 41.8 201.1 5.2 192.2C-31.5 183.2 -63 173.5 -96.6 160.7C-130.3 148 -166 132.2 -176.3 104.9C-186.5 77.7 -171.3 38.8 -153.9 10C-136.5 -18.8 -117 -37.5 -106.5 -64.4C-96 -91.2 -94.5 -126.1 -78.2 -136.3C-62 -146.4 -31 -131.7 9.5 -148.1C50 -164.6 100 -212.2 121.4 -205" fill="#FAAF1F"></path></g></svg>