<svg id="visual" viewBox="0 0 900 600" width="900" height="600" xmlns="http://www.w3.org/2000/svg" xmlns:xlink="http://www.w3.org/1999/xlink" version="1.1"><rect x="0" y="0" width="900" height="600" fill="#FF0066"></rect><g transform="translate(454.5637355255589 322.28446518092994)"><path d="M116.1 -206.7C154.5 -178.9 192.4 -155.9 203.2 -122.3C213.9 -88.7 197.5 -44.3 180.7 -9.7C164 25 146.9 50 141.4 92.7C135.9 135.5 142 195.9 120.3 214.7C98.7 233.6 49.3 210.8 1.3 208.5C-46.7 206.2 -93.3 224.3 -134.8 216.9C-176.2 209.5 -212.4 176.5 -215.5 136.1C-218.7 95.7 -188.8 47.8 -183.7 3C-178.5 -41.8 -197.9 -83.7 -190.5 -116.7C-183.1 -149.8 -148.8 -174 -112.6 -203.1C-76.3 -232.2 -38.2 -266.1 0.3 -266.7C38.8 -267.3 77.7 -234.5 116.1 -206.7" fill="none" stroke="#FFF" stroke-width="6"></path></g></svg>