<svg id="visual" viewBox="0 0 900 600" width="900" height="600" xmlns="http://www.w3.org/2000/svg" xmlns:xlink="http://www.w3.org/1999/xlink" version="1.1"><g transform="translate(451.2226522271323 312.92694264987)"><path d="M124.8 -195.2C164.7 -193.2 201.8 -165.6 217.4 -128.8C233 -92 227 -46 208.8 -10.5C190.6 25 160.3 50 142.4 82.9C124.6 115.8 119.3 156.6 97.7 169.8C76 183 38 168.5 -1.9 171.8C-41.8 175.1 -83.7 196.2 -120.2 191.7C-156.7 187.1 -187.9 156.8 -206.5 120.6C-225.1 84.3 -231 42.2 -228.1 1.7C-225.3 -38.8 -213.5 -77.7 -199 -121C-184.5 -164.3 -167.3 -212 -133.6 -217.6C-100 -223.2 -50 -186.6 -3.8 -180.1C42.5 -173.6 85 -197.2 124.8 -195.2" fill="#faaf1f"></path></g></svg>