<svg id="visual" viewBox="0 0 900 600" width="900" height="600" xmlns="http://www.w3.org/2000/svg" xmlns:xlink="http://www.w3.org/1999/xlink" version="1.1"><g transform="translate(460.29784679709246 337.0436893755699)"><path d="M112.1 -206.4C136.5 -180 141.4 -132.3 169.5 -94.3C197.6 -56.3 248.8 -28.2 248.4 -0.3C247.9 27.7 195.8 55.3 161.3 82.2C126.8 109 109.9 135.1 86 146.2C62 157.4 31 153.7 -1.1 155.6C-33.2 157.5 -66.3 164.9 -106.9 163.3C-147.5 161.7 -195.4 151.1 -228.2 122.4C-260.9 93.7 -278.5 46.8 -263.7 8.5C-249 -29.8 -202 -59.7 -174.4 -97.3C-146.8 -135 -138.7 -180.5 -112.8 -206.1C-87 -231.7 -43.5 -237.3 0.2 -237.6C43.8 -237.9 87.7 -232.8 112.1 -206.4" fill="none" stroke="#fff" stroke-width="6"></path></g></svg>