<svg id="visual" viewBox="0 0 900 600" width="900" height="600" xmlns="http://www.w3.org/2000/svg" xmlns:xlink="http://www.w3.org/1999/xlink" version="1.1"><rect x="0" y="0" width="900" height="600" fill="#FF0066"></rect><g transform="translate(426.27135054889374 311.479310183515)"><path d="M129.4 -209C158.9 -207.2 167.8 -154.6 191.6 -111.3C215.4 -68 254.2 -34 241.7 -7.3C229.1 19.5 165.2 39 126.7 56.9C88.2 74.8 75.1 91.1 58.2 116.7C41.3 142.3 20.7 177.1 -4.2 184.5C-29.2 191.9 -58.3 171.7 -96.9 158.6C-135.4 145.5 -183.3 139.5 -188.9 114.3C-194.5 89 -157.7 44.5 -159.5 -1C-161.2 -46.5 -201.4 -93 -196.2 -119C-191.1 -145 -140.5 -150.4 -100.3 -145.9C-60 -141.4 -30 -127 10 -144.3C50 -161.6 100 -210.7 129.4 -209" fill="none" stroke="#FFF" stroke-width="6"></path></g></svg>