<svg id="visual" viewBox="0 0 900 600" width="900" height="600" xmlns="http://www.w3.org/2000/svg" xmlns:xlink="http://www.w3.org/1999/xlink" version="1.1"><rect x="0" y="0" width="900" height="600" fill="#000000"></rect><g transform="translate(461.2540323764339 340.09474391466273)"><path d="M126.2 -213.4C165.8 -195.8 201.5 -166.4 214.5 -128.9C227.5 -91.3 217.8 -45.7 218.5 0.4C219.2 46.5 230.4 93 208.2 114.7C186.1 136.3 130.5 133.1 90.3 135.2C50 137.3 25 144.6 -5.1 153.4C-35.2 162.2 -70.3 172.5 -102.8 165.9C-135.3 159.3 -165.1 135.9 -191.7 105.5C-218.2 75 -241.6 37.5 -244.2 -1.5C-246.8 -40.5 -228.6 -81 -209.5 -124.3C-190.3 -167.6 -170.1 -213.7 -135.1 -234C-100 -254.2 -50 -248.6 -3.3 -242.8C43.3 -237.1 86.7 -231.1 126.2 -213.4" fill="none" stroke="#FFF" stroke-width="6"></path></g></svg>