<svg id="visual" viewBox="0 0 900 600" width="900" height="600" xmlns="http://www.w3.org/2000/svg" xmlns:xlink="http://www.w3.org/1999/xlink" version="1.1"><g transform="translate(451.4578335830196 284.9645482363924)"><path d="M129.9 -205.9C168.2 -202.9 198.8 -167.7 218.4 -128C238 -88.3 246.5 -44.2 241.3 -3C236.1 38.2 217.2 76.3 199.7 119.6C182.2 162.9 166.1 211.4 133.1 228.3C100 245.2 50 230.6 3.8 224.1C-42.5 217.6 -85 219.2 -118.9 202.8C-152.8 186.4 -178.2 151.9 -200.4 115.1C-222.7 78.3 -241.8 39.2 -245.2 -1.9C-248.5 -43 -236 -86 -205.3 -108.2C-174.6 -130.5 -125.8 -131.9 -88.6 -135.4C-51.3 -138.9 -25.7 -144.5 10.1 -161.9C45.8 -179.4 91.7 -208.8 129.9 -205.9" fill="#faaf1f"></path></g></svg>