<svg id="visual" viewBox="0 0 900 600" width="900" height="600" xmlns="http://www.w3.org/2000/svg" xmlns:xlink="http://www.w3.org/1999/xlink" version="1.1"><g transform="translate(452.63165255407944 316.6262176021794)"><path d="M101.3 -186.3C133.7 -156.8 163.8 -134.4 181.2 -104.5C198.7 -74.7 203.3 -37.3 214.3 6.3C225.3 50 242.5 100 227.5 134.1C212.5 168.1 165.3 186.3 122 200.6C78.7 214.9 39.3 225.5 -2.9 230.5C-45.2 235.6 -90.3 235.1 -112 208.3C-133.6 181.5 -131.8 128.2 -155.7 89.1C-179.6 50 -229.3 25 -237.4 -4.7C-245.5 -34.3 -211.9 -68.7 -188.8 -109.1C-165.6 -149.5 -152.8 -196 -123.1 -227C-93.3 -258 -46.7 -273.5 -6.1 -263C34.5 -252.4 69 -215.8 101.3 -186.3" fill="none" stroke="#fff" stroke-width="6"></path></g></svg>