<svg id="visual" viewBox="0 0 900 600" width="900" height="600" xmlns="http://www.w3.org/2000/svg" xmlns:xlink="http://www.w3.org/1999/xlink" version="1.1"><g transform="translate(440.04807004077304 350.9230275099533)"><path d="M115 -200.3C157.2 -174.7 205.5 -160.6 221.8 -129.1C238.2 -97.7 222.6 -48.8 222.9 0.2C223.2 49.2 239.3 98.3 218.3 121.7C197.3 145.1 139.2 142.7 96.6 144.4C54 146.2 27 152.1 -4.2 159.3C-35.3 166.5 -70.7 175.1 -92.3 161.2C-114 147.4 -121.9 111.2 -144.8 80.6C-167.6 50 -205.3 25 -209.1 -2.2C-212.8 -29.3 -182.6 -58.7 -164 -96.6C-145.4 -134.6 -138.5 -181.2 -113.1 -216.5C-87.7 -251.8 -43.8 -275.9 -3.8 -269.4C36.3 -262.9 72.7 -225.9 115 -200.3" fill="#FFF"></path></g></svg>