<svg id="visual" viewBox="0 0 900 600" width="900" height="600" xmlns="http://www.w3.org/2000/svg" xmlns:xlink="http://www.w3.org/1999/xlink" version="1.1"><g transform="translate(475.8144425115256 308.3216538894487)"><path d="M120.9 -205.5C158.4 -187.7 191.8 -158.8 201.9 -122.8C212.1 -86.7 199.1 -43.3 200.2 0.7C201.4 44.7 216.7 89.3 210 131.3C203.2 173.3 174.4 212.7 135.7 215.3C97 218 48.5 184 1.1 182.1C-46.3 180.3 -92.7 210.5 -126.6 205.1C-160.5 199.7 -182 158.6 -208.8 118.5C-235.7 78.3 -267.8 39.2 -262.8 2.9C-257.7 -33.3 -215.5 -66.7 -187.2 -104.3C-159 -142 -144.7 -184 -115.9 -206.9C-87 -229.7 -43.5 -233.3 -0.9 -231.8C41.7 -230.2 83.3 -223.3 120.9 -205.5" fill="#FFF"></path></g></svg>