<svg id="visual" viewBox="0 0 600 600" width="600" height="600" xmlns="http://www.w3.org/2000/svg" xmlns:xlink="http://www.w3.org/1999/xlink" version="1.1"><g transform="translate(306.3864557641664 307.4849694039764)"><path d="M157.5 -190.9C203.7 -149 240.2 -98.9 238.9 -50.4C237.6 -1.9 198.5 45.1 168.6 97.8C138.7 150.6 118.1 209.2 78.2 230.5C38.3 251.8 -20.9 235.9 -78.5 215.1C-136.2 194.4 -192.4 169 -223.7 124.4C-255 79.9 -261.4 16.3 -236.1 -26.7C-210.7 -69.8 -153.6 -92.4 -108.9 -134.5C-64.3 -176.6 -32.1 -238.3 11.8 -252.3C55.7 -266.4 111.4 -232.8 157.5 -190.9" fill="#BB004B"></path></g></svg>