<svg xmlns="http://www.w3.org/2000/svg" viewBox="0 0 14400 600" width="14400" height="600"><path d="M572.398 130.644c24.4 26.4 29.3 74.1 57.4 112.1 28.1 38 79.3 66.1 78.9 94-.5 28-52.6 55.6-87.1 82.5-34.5 26.8-51.4 52.9-75.3 64-24 11.2-55 7.5-87.1 9.4-32.1 1.9-65.2 9.3-105.8 7.7-40.6-1.6-88.5-12.2-121.3-40.9-32.7-28.7-50.3-75.6-35.5-113.9 14.7-38.3 61.7-68.2 89.3-105.8 27.6-37.7 35.7-83.2 61.6-108.8 25.8-25.6 69.3-31.2 113-31.5 43.6-.3 87.5 4.8 111.9 31.2M1471.678 131.984c24.933 26.607 31.513 72.62 58.9 110.08 27.393 37.453 75.487 66.173 75.847 95.12.266 29.047-47.214 58.14-80.414 85.52-33.2 27.28-52.12 52.853-77.313 64.167-25.287 11.406-56.847 8.66-89.62 10.766-32.78 2.114-66.68 8.987-106.02 5.707-39.333-3.28-83.92-16.727-116.127-46.12-32.113-29.393-51.853-74.833-38.58-112.56 13.18-37.72 59.287-67.92 86.587-105.707 27.307-37.88 35.72-83.446 61.873-109.406 26.067-25.96 69.774-32.22 113.267-31.8 43.4.426 86.673 7.626 111.6 34.233M2370.958 133.324c25.467 26.813 33.727 71.14 60.4 108.06 26.687 36.907 71.673 66.247 72.793 96.24 1.034 30.093-41.826 60.68-73.726 88.54-31.9 27.76-52.84 52.807-79.327 64.333-26.573 11.614-58.693 9.82-92.14 12.134-33.46 2.326-68.16 8.673-106.24 3.713-38.067-4.96-79.34-21.253-110.953-51.34-31.527-30.087-53.407-74.067-41.66-111.22 11.66-37.14 56.873-67.64 83.873-105.613 27.013-38.06 35.74-83.694 62.147-110.014 26.333-26.32 70.246-33.24 113.533-32.1 43.2 1.154 85.847 10.454 111.3 37.267M3270.238 134.664c26 27.02 35.94 69.66 61.9 106.04 25.98 36.36 67.86 66.32 69.74 97.36 1.8 31.14-36.44 63.22-67.04 91.56-30.6 28.24-53.56 52.76-81.34 64.5-27.86 11.82-60.54 10.98-94.66 13.5-34.14 2.54-69.64 8.36-106.46 1.72-36.8-6.64-74.76-25.78-105.78-56.56-30.94-30.78-54.96-73.3-44.74-109.88 10.14-36.56 54.46-67.36 81.16-105.52 26.72-38.24 35.76-83.94 62.42-110.62 26.6-26.68 70.72-34.26 113.8-32.4 43 1.88 85.02 13.28 111 40.3M4169.518 136.004c26.533 27.227 38.153 68.18 63.4 104.02 25.273 35.813 64.047 66.393 66.687 98.48 2.566 32.187-31.054 65.76-60.354 94.58-29.3 28.72-54.28 52.713-83.353 64.667-29.147 12.026-62.387 12.14-97.18 14.866-34.82 2.754-71.12 8.047-106.68-.273-35.533-8.32-70.18-30.307-100.607-61.78-30.353-31.473-56.513-72.533-47.82-108.54 8.62-35.98 52.047-67.08 78.447-105.427 26.427-38.42 35.78-84.186 62.693-111.226 26.867-27.04 71.194-35.28 114.067-32.7 42.8 2.606 84.193 16.106 110.7 43.333M5068.798 137.344c27.067 27.433 40.367 66.7 64.9 102 24.567 35.267 60.233 66.467 63.633 99.6 3.334 33.233-25.666 68.3-53.666 97.6-28 29.2-55 52.667-85.367 64.833-30.433 12.234-64.233 13.3-99.7 16.234-35.5 2.966-72.6 7.733-106.9-2.267-34.267-10-65.6-34.833-95.433-67-29.767-32.167-58.067-71.767-50.9-107.2 7.1-35.4 49.633-66.8 75.733-105.333 26.133-38.6 35.8-84.434 62.967-111.834 27.133-27.4 71.666-36.3 114.333-33 42.6 3.334 83.367 18.934 110.4 46.367M5968.078 138.684c27.6 27.64 42.58 65.22 66.4 99.98 23.86 34.72 56.42 66.54 60.58 100.72 4.1 34.28-20.28 70.84-46.98 100.62-26.7 29.68-55.72 52.62-87.38 65-31.72 12.44-66.08 14.46-102.22 17.6-36.18 3.18-74.08 7.42-107.12-4.26-33-11.68-61.02-39.36-90.26-72.22-29.18-32.86-59.62-71-53.98-105.86 5.58-34.82 47.22-66.52 73.02-105.24 25.84-38.78 35.82-84.68 63.24-112.44 27.4-27.76 72.14-37.32 114.6-33.3 42.4 4.06 82.54 21.76 110.1 49.4M6867.358 140.024c28.133 27.847 44.793 63.74 67.9 97.96 23.153 34.173 52.607 66.613 57.527 101.84 4.866 35.327-14.894 73.38-40.294 103.64-25.4 30.16-56.44 52.573-89.393 65.167-33.007 12.646-67.927 15.62-104.74 18.966-36.86 3.394-75.56 7.107-107.34-6.253-31.733-13.36-56.44-43.887-85.087-77.44-28.593-33.553-61.173-70.233-57.06-104.52 4.06-34.24 44.807-66.24 70.307-105.147 25.547-38.96 35.84-84.926 63.513-113.046 27.667-28.12 72.614-38.34 114.867-33.6 42.2 4.786 81.713 24.586 109.8 52.433M7766.638 141.364c28.667 28.053 47.007 62.26 69.4 95.94 22.447 33.627 48.793 66.687 54.473 102.96 5.634 36.373-9.506 75.92-33.606 106.66-24.1 30.64-57.16 52.527-91.407 65.333-34.293 12.854-69.773 16.78-107.26 20.334-37.54 3.606-77.04 6.793-107.56-8.247-30.467-15.04-51.86-48.413-79.913-82.66-28.007-34.247-62.727-69.467-60.14-103.18 2.54-33.66 42.393-65.96 67.593-105.053 25.253-39.14 35.86-85.174 63.787-113.654 27.933-28.48 73.086-39.36 115.133-33.9 42 5.514 80.887 27.414 109.5 55.467M8665.918 142.704c29.2 28.26 49.22 60.78 70.9 93.92 21.74 33.08 44.98 66.76 51.42 104.08 6.4 37.42-4.12 78.46-26.92 109.68-22.8 31.12-57.88 52.48-93.42 65.5-35.58 13.06-71.62 17.94-109.78 21.7-38.22 3.82-78.52 6.48-107.78-10.24-29.2-16.72-47.28-52.94-74.74-87.88-27.42-34.94-64.28-68.7-63.22-101.84 1.02-33.08 39.98-65.68 64.88-104.96 24.96-39.32 35.88-85.42 64.06-114.26 28.2-28.84 73.56-40.38 115.4-34.2 41.8 6.24 80.06 30.24 109.2 58.5M9565.198 144.044c29.733 28.467 51.433 59.3 72.4 91.9 21.033 32.533 41.167 66.833 48.367 105.2 7.166 38.467 1.266 81-20.234 112.7-21.5 31.6-58.6 52.433-95.433 65.667-36.867 13.266-73.467 19.1-112.3 23.066-38.9 4.034-80 6.167-108-12.233-27.933-18.4-42.7-57.467-69.567-93.1-26.833-35.633-65.833-67.933-66.3-100.5-.5-32.5 37.567-65.4 62.167-104.867 24.667-39.5 35.9-85.666 64.333-114.866 28.467-29.2 74.034-41.4 115.667-34.5 41.6 6.966 79.233 33.066 108.9 61.533M10464.478 145.384c30.267 28.673 53.647 57.82 73.9 89.88 20.327 31.987 37.353 66.907 45.313 106.32 7.934 39.513 6.654 83.54-13.546 115.72-20.2 32.08-59.32 52.387-97.447 65.833-38.153 13.474-75.313 20.26-114.82 24.434-39.58 4.246-81.48 5.853-108.22-14.227-26.667-20.08-38.12-61.993-64.393-98.32-26.247-36.327-67.387-67.167-69.38-99.16-2.02-31.92 35.153-65.12 59.453-104.773 24.373-39.68 35.92-85.914 64.607-115.474 28.733-29.56 74.506-42.42 115.933-34.8 41.4 7.694 78.407 35.894 108.6 64.567M11363.758 146.724c30.8 28.88 55.86 56.34 75.4 87.86 19.62 31.44 33.54 66.98 42.26 107.44 8.7 40.56 12.04 86.08-6.86 118.74-18.9 32.56-60.04 52.34-99.46 66-39.44 13.68-77.16 21.42-117.34 25.8-40.26 4.46-82.96 5.54-108.44-16.22-25.4-21.76-33.54-66.52-59.22-103.54-25.66-37.02-68.94-66.4-72.46-97.82-3.54-31.34 32.74-64.84 56.74-104.68 24.08-39.86 35.94-86.16 64.88-116.08 29-29.92 74.98-43.44 116.2-35.1 41.2 8.42 77.58 38.72 108.3 67.6M12263.038 148.064c31.333 29.087 58.073 54.86 76.9 85.84 18.913 30.893 29.727 67.053 39.207 108.56 9.466 41.607 17.426 88.62-.174 121.76-17.6 33.04-60.76 52.293-101.473 66.167-40.727 13.886-79.007 22.58-119.86 27.166-40.94 4.674-84.44 5.227-108.66-18.213-24.133-23.44-28.96-71.047-54.047-108.76-25.073-37.713-70.493-65.633-75.54-96.48-5.06-30.76 30.327-64.56 54.027-104.587 23.787-40.04 35.96-86.406 65.153-116.686 29.267-30.28 75.454-44.46 116.467-35.4 41 9.146 76.753 41.546 108 70.633M13162.318 149.404c31.867 29.293 60.287 53.38 78.4 83.82 18.207 30.347 25.913 67.127 36.153 109.68 10.234 42.653 22.814 91.16 6.514 124.78-16.3 33.52-61.48 52.247-103.487 66.333-42.013 14.094-80.853 23.74-122.38 28.534-41.62 4.886-85.92 4.913-108.88-20.207-22.867-25.12-24.38-75.573-48.873-113.98-24.487-38.407-72.047-64.867-78.62-95.14-6.58-30.18 27.913-64.28 51.313-104.493 23.493-40.22 35.98-86.654 65.427-117.294 29.533-30.64 75.926-45.48 116.733-35.7 40.8 9.874 75.927 44.374 107.7 73.667M14061.598 150.744c32.4 29.5 62.5 51.9 79.9 81.8 17.5 29.8 22.1 67.2 33.1 110.8 11 43.7 28.2 93.7 13.2 127.8-15 34-62.2 52.2-105.5 66.5-43.3 14.3-82.7 24.9-124.9 29.9-42.3 5.1-87.4 4.6-109.1-22.2-21.6-26.8-19.8-80.1-43.7-119.2-23.9-39.1-73.6-64.1-81.7-93.8-8.1-29.6 25.5-64 48.6-104.4 23.2-40.4 36-86.9 65.7-117.9 29.8-31 76.4-46.5 117-36 40.6 10.6 75.1 47.2 107.4 76.7" fill="none" stroke="#ffffff"/></svg>