<svg xmlns="http://www.w3.org/2000/svg" viewBox="0 0 14400 600" width="14400" height="600"><path d="M586.498 123.644c39.6 17.6 75.3 47 88.3 84.5 13 37.6 3.3 83.2 4 129.3.7 46.1 11.9 92.6-10.3 114.3-22.1 21.6-77.7 18.4-117.9 20.5-40.3 2.1-65.3 9.4-95.4 18.2-30.1 8.8-65.2 19.1-97.7 12.5-32.5-6.6-62.3-30-88.9-60.4-26.5-30.5-49.9-68-52.5-107-2.6-39 15.6-79.5 34.7-122.8 19.2-43.3 39.4-89.4 74.4-109.7 35.1-20.2 85.1-14.6 131.8-8.8 46.6 5.7 90 11.7 129.5 29.4M1485.825 124.091c39.52 18.28 75.366 47.253 88.22 84.493 12.846 37.333 2.7 82.853 2.233 128.187-.46 45.34 8.853 90.406-12.233 113.506-20.994 23.014-72.48 24.054-111.447 27.267-39.053 3.22-65.68 8.513-96.973 16.573-31.294 8.06-67.16 18.88-100.26 12.227-33.094-6.653-63.32-30.693-88.354-61.76-24.946-31.16-44.793-69.353-46.88-108.74-2.08-39.387 13.614-79.98 31.934-122.593 18.413-42.62 39.553-87.26 74.633-108.147 35.18-20.793 84.387-17.827 130.54-12.453 46.06 5.28 89.16 13.066 128.587 31.44M2385.151 124.537c39.44 18.96 75.434 47.507 88.14 84.487 12.694 37.067 2.1 82.507.467 127.073-1.62 44.58 5.807 88.214-14.167 112.714-19.886 24.426-67.26 29.706-104.993 34.033-37.807 4.34-66.06 7.627-98.547 14.947-32.486 7.32-69.12 18.66-102.82 11.953-33.686-6.707-64.34-31.387-87.806-63.12-23.394-31.82-39.687-70.707-41.26-110.48-1.56-39.773 11.626-80.46 29.166-122.387 17.627-41.94 39.707-85.12 74.867-106.593 35.26-21.387 83.673-21.053 129.28-16.107 45.52 4.86 88.32 14.434 127.673 33.48M3284.478 124.984c39.36 19.64 75.5 47.76 88.06 84.48 12.54 36.8 1.5 82.16-1.3 125.96-2.78 43.82 2.76 86.02-16.1 111.92-18.78 25.84-62.04 35.36-98.54 40.8-36.56 5.46-66.44 6.74-100.12 13.32-33.68 6.58-71.08 18.44-105.38 11.68-34.28-6.76-65.36-32.08-87.26-64.48-21.84-32.48-34.58-72.06-35.64-112.22-1.04-40.16 9.64-80.94 26.4-122.18 16.84-41.26 39.86-82.98 75.1-105.04 35.34-21.98 82.96-24.28 128.02-19.76 44.98 4.44 87.48 15.8 126.76 35.52M4183.805 125.431c39.28 20.32 75.566 48.013 87.98 84.473 12.386 36.533.9 81.813-3.067 124.847-3.94 43.06-.287 83.826-18.033 111.126-17.674 27.254-56.82 41.014-92.087 47.567-35.313 6.58-66.82 5.853-101.693 11.693-34.874 5.84-73.04 18.22-107.94 11.407-34.874-6.813-66.38-32.773-86.714-65.84-20.286-33.14-29.473-73.413-30.02-113.96-.52-40.547 7.654-81.42 23.634-121.973 16.053-40.58 40.013-80.84 75.333-103.487 35.42-22.573 82.247-27.507 126.76-23.413 44.44 4.02 86.64 17.166 125.847 37.56M5083.131 125.877c39.2 21 75.634 48.267 87.9 84.467 12.234 36.267.3 81.467-4.833 123.733-5.1 42.3-3.333 81.634-19.967 110.334-16.566 28.666-51.6 46.666-85.633 54.333-34.067 7.7-67.2 4.967-103.267 10.067-36.066 5.1-75 18-110.5 11.133-35.466-6.867-67.4-33.467-86.166-67.2-18.734-33.8-24.367-74.767-24.4-115.7 0-40.933 5.666-81.9 20.866-121.767 15.267-39.9 40.167-78.7 75.567-101.933 35.5-23.167 81.533-30.733 125.5-27.067 43.9 3.6 85.8 18.534 124.933 39.6M5982.458 126.324c39.12 21.68 75.7 48.52 87.82 84.46 12.08 36-.3 81.12-6.6 122.62-6.26 41.54-6.38 79.44-21.9 109.54-15.46 30.08-46.38 52.32-79.18 61.1-32.82 8.82-67.58 4.08-104.84 8.44-37.26 4.36-76.96 17.78-113.06 10.86-36.06-6.92-68.42-34.16-85.62-68.56-17.18-34.46-19.26-76.12-18.78-117.44.52-41.32 3.68-82.38 18.1-121.56 14.48-39.22 40.32-76.56 75.8-100.38 35.58-23.76 80.82-33.96 124.24-30.72 43.36 3.18 84.96 19.9 124.02 41.64M6881.785 126.771c39.04 22.36 75.766 48.773 87.74 84.453 11.926 35.733-.9 80.773-8.367 121.507-7.42 40.78-9.427 77.246-23.833 108.746-14.354 31.494-41.16 57.974-72.727 67.867-31.573 9.94-67.96 3.193-106.413 6.813-38.454 3.62-78.92 17.56-115.62 10.587-36.654-6.973-69.44-34.853-85.074-69.92-15.626-35.12-14.153-77.473-13.16-119.18 1.04-41.707 1.694-82.86 15.334-121.353 13.693-38.54 40.473-74.42 76.033-98.827 35.66-24.353 80.107-37.187 122.98-34.373 42.82 2.76 84.12 21.266 123.107 43.68M7781.111 127.217c38.96 23.04 75.834 49.027 87.66 84.447 11.774 35.467-1.5 80.427-10.133 120.393-8.58 40.02-12.473 75.054-25.767 107.954-13.246 32.906-35.94 63.626-66.273 74.633-30.327 11.06-68.34 2.307-107.987 5.187-39.646 2.88-80.88 17.34-118.18 10.313-37.246-7.027-70.46-35.547-84.526-71.28-14.074-35.78-9.047-78.827-7.54-120.92 1.56-42.093-.294-83.34 12.566-121.147 12.907-37.86 40.627-72.28 76.267-97.273 35.74-24.947 79.393-40.413 121.72-38.027 42.28 2.34 83.28 22.634 122.193 45.72M8680.438 127.664c38.88 23.72 75.9 49.28 87.58 84.44 11.62 35.2-2.1 80.08-11.9 119.28-9.74 39.26-15.52 72.86-27.7 107.16-12.14 34.32-30.72 69.28-59.82 81.4-29.08 12.18-68.72 1.42-109.56 3.56s-82.84 17.12-120.74 10.04c-37.84-7.08-71.48-36.24-83.98-72.64-12.52-36.44-3.94-80.18-1.92-122.66 2.08-42.48-2.28-83.82 9.8-120.94 12.12-37.18 40.78-70.14 76.5-95.72 35.82-25.54 78.68-43.64 120.46-41.68 41.74 1.92 82.44 24 121.28 47.76M9579.765 128.111c38.8 24.4 75.966 49.533 87.5 84.433 11.466 34.933-2.7 79.733-13.667 118.167-10.9 38.5-18.567 70.666-29.633 106.366-11.034 35.734-25.5 74.934-53.367 88.167-27.833 13.3-69.1.533-111.133 1.933-42.034 1.4-84.8 16.9-123.3 9.767-38.434-7.133-72.5-36.933-83.434-74-10.966-37.1 1.167-81.533 3.7-124.4 2.6-42.867-4.266-84.3 7.034-120.733 11.333-36.5 40.933-68 76.733-94.167 35.9-26.133 77.967-46.867 119.2-45.333 41.2 1.5 81.6 25.366 120.367 49.8M10479.091 128.557c38.72 25.08 76.034 49.787 87.42 84.427 11.314 34.667-3.3 79.387-15.433 117.053-12.06 37.74-21.613 68.474-31.567 105.574-9.926 37.146-20.28 80.586-46.913 94.933-26.587 14.42-69.48-.353-112.707.307-43.226.66-86.76 16.68-125.86 9.493-39.026-7.187-73.52-37.627-82.886-75.36-9.414-37.76 6.273-82.887 9.32-126.14 3.12-43.253-6.254-84.78 4.266-120.527 10.547-35.82 41.087-65.86 76.967-92.613 35.98-26.727 77.253-50.093 117.94-48.987 40.66 1.08 80.76 26.734 119.453 51.84M11378.418 129.004c38.64 25.76 76.1 50.04 87.34 84.42 11.16 34.4-3.9 79.04-17.2 115.94-13.22 36.98-24.66 66.28-33.5 104.78-8.82 38.56-15.06 86.24-40.46 101.7-25.34 15.54-69.86-1.24-114.28-1.32-44.42-.08-88.72 16.46-128.42 9.22-39.62-7.24-74.54-38.32-82.34-76.72-7.86-38.42 11.38-84.24 14.94-127.88 3.64-43.64-8.24-85.26 1.5-120.32 9.76-35.14 41.24-63.72 77.2-91.06 36.06-27.32 76.54-53.32 116.68-52.64 40.12.66 79.92 28.1 118.54 53.88M12277.745 129.451c38.56 26.44 76.166 50.293 87.26 84.413 11.006 34.133-4.5 78.693-18.967 114.827-14.38 36.22-27.707 64.086-35.433 103.986-7.714 39.974-9.84 91.894-34.007 108.467-24.093 16.66-70.24-2.127-115.853-2.947-45.614-.82-90.68 16.24-130.98 8.947-40.214-7.293-75.56-39.013-81.794-78.08-6.306-39.08 16.487-85.593 20.56-129.62 4.16-44.027-10.226-85.74-1.266-120.113 8.973-34.46 41.393-61.58 77.433-89.507 36.14-27.913 75.827-56.547 115.42-56.293 39.58.24 79.08 29.466 117.627 55.92M13177.071 129.897c38.48 27.12 76.234 50.547 87.18 84.407 10.854 33.867-5.1 78.347-20.733 113.713-15.54 35.46-30.753 61.894-37.367 103.194-6.606 41.386-4.62 97.546-27.553 115.233-22.847 17.78-70.62-3.013-117.427-4.573-46.806-1.56-92.64 16.02-133.54 8.673-40.806-7.347-76.58-39.707-81.246-79.44-4.754-39.74 21.593-86.947 26.18-131.36 4.68-44.413-12.214-86.22-4.034-119.907 8.187-33.78 41.547-59.44 77.667-87.953 36.22-28.507 75.113-59.773 114.16-59.947 39.04-.18 78.24 30.834 116.713 57.96M14076.398 130.344c38.4 27.8 76.3 50.8 87.1 84.4 10.7 33.6-5.7 78-22.5 112.6-16.7 34.7-33.8 59.7-39.3 102.4-5.5 42.8.6 103.2-21.1 122-21.6 18.9-71-3.9-119-6.2-48-2.3-94.6 15.8-136.1 8.4-41.4-7.4-77.6-40.4-80.7-80.8-3.2-40.4 26.7-88.3 31.8-133.1 5.2-44.8-14.2-86.7-6.8-119.7 7.4-33.1 41.7-57.3 77.9-86.4 36.3-29.1 74.4-63 112.9-63.6 38.5-.6 77.4 32.2 115.8 60" fill="none" stroke="#ffffff"/></svg>