<svg xmlns="http://www.w3.org/2000/svg" viewBox="0 0 14400 600" width="14400" height="600"><path d="M581.698 132.044c21.3 7.1 14 69.1 34.4 112.4 20.3 43.3 68.3 67.9 64.2 90.3-4 22.3-60.1 42.3-84.5 78.5-24.4 36.3-17.2 88.7-34.5 110.9-17.3 22.1-59.2 14-95.8 5.1-36.7-9-68.2-18.7-101.8-31.5-33.7-12.7-69.4-28.5-79.7-55.8-10.2-27.2 5-66.1 22.4-94.9 17.4-28.8 36.9-47.5 47.4-74.4 10.5-26.8 12-61.7 28.3-71.9 16.2-10.1 47.2 4.6 87.7-11.8 40.5-16.5 90.5-64.1 111.9-56.9M1482.265 131.984c22.433 6.827 17.66 67.04 38.006 110.1 20.254 43.06 65.62 68.96 61.447 92.613-4.08 23.56-57.7 44.767-81.64 81.44-23.94 36.767-18.293 88.907-36.64 110.754-18.353 21.753-60.793 13.22-98.033 4.48-37.34-8.834-69.574-17.78-103.194-30.82-33.713-12.947-68.726-29.994-79.82-57.927-11.006-27.84 1.907-66.753 17.92-96.373 16.02-29.62 35.054-49.94 46.9-76.527 11.847-26.5 16.5-59.167 34.194-68.92 17.606-9.66 48.246 3.687 88.433-12.78 40.18-16.567 89.907-62.953 112.427-56.04M2382.831 131.924c23.567 6.553 21.32 64.98 41.614 107.8 20.206 42.82 62.94 70.02 58.693 94.927-4.16 24.82-55.3 47.233-78.78 84.38-23.48 37.233-19.387 89.113-38.78 110.606-19.407 21.407-62.387 12.44-100.267 3.86-37.98-8.666-70.946-16.86-104.586-30.14-33.727-13.193-68.054-31.486-79.94-60.053-11.814-28.48-1.187-67.407 13.44-97.847 14.64-30.44 33.206-52.38 46.4-78.653 13.193-26.2 21-56.633 40.086-65.94 19.014-9.22 49.294 2.773 89.167-13.76 39.86-16.633 89.313-61.807 112.953-55.18M3283.398 131.864c24.7 6.28 24.98 62.92 45.22 105.5 20.16 42.58 60.26 71.08 55.94 97.24-4.24 26.08-52.9 49.7-75.92 87.32-23.02 37.7-20.48 89.32-40.92 110.46-20.46 21.06-63.98 11.66-102.5 3.24-38.62-8.5-72.32-15.94-105.98-29.46-33.74-13.44-67.38-32.98-80.06-62.18-12.62-29.12-4.28-68.06 8.96-99.32 13.26-31.26 31.36-54.82 45.9-80.78 14.54-25.9 25.5-54.1 45.98-62.96 20.42-8.78 50.34 1.86 89.9-14.74 39.54-16.7 88.72-60.66 113.48-54.32M4183.965 131.804c25.833 6.007 28.64 60.86 48.826 103.2 20.114 42.34 57.58 72.14 53.187 99.553-4.32 27.34-50.5 52.167-73.06 90.26-22.56 38.167-21.573 89.527-43.06 110.314-21.513 20.713-65.573 10.88-104.733 2.62-39.26-8.334-73.694-15.02-107.374-28.78-33.753-13.687-66.706-34.474-80.18-64.307-13.426-29.76-7.373-68.713 4.48-100.793 11.88-32.08 29.514-57.26 45.4-82.907 15.887-25.6 30-51.567 51.874-59.98 21.826-8.34 51.386.947 90.633-15.72 39.22-16.767 88.127-59.513 114.007-53.46M5084.531 131.744c26.967 5.733 32.3 58.8 52.434 100.9 20.066 42.1 54.9 73.2 50.433 101.867-4.4 28.6-48.1 54.633-70.2 93.2-22.1 38.633-22.667 89.733-45.2 110.166-22.567 20.367-67.167 10.1-106.967 2-39.9-8.166-75.066-14.1-108.766-28.1-33.767-13.933-66.034-35.966-80.3-66.433-14.234-30.4-10.467-69.367 0-102.267 10.5-32.9 27.666-59.7 44.9-85.033 17.233-25.3 34.5-49.033 57.766-57 23.234-7.9 52.434.033 91.367-16.7 38.9-16.833 87.533-58.367 114.533-52.6M5985.098 131.684c28.1 5.46 35.96 56.74 56.04 98.6 20.02 41.86 52.22 74.26 47.68 104.18-4.48 29.86-45.7 57.1-67.34 96.14-21.64 39.1-23.76 89.94-47.34 110.02-23.62 20.02-68.76 9.32-109.2 1.38-40.54-8-76.44-13.18-110.16-27.42-33.78-14.18-65.36-37.46-80.42-68.56-15.04-31.04-13.56-70.02-4.48-103.74 9.12-33.72 25.82-62.14 44.4-87.16 18.58-25 39-46.5 63.66-54.02 24.64-7.46 53.48-.88 92.1-17.68 38.58-16.9 86.94-57.22 115.06-51.74M6885.665 131.624c29.233 5.187 39.62 54.68 59.646 96.3 19.974 41.62 49.54 75.32 44.927 106.493-4.56 31.12-43.3 59.567-64.48 99.08-21.18 39.567-24.853 90.147-49.48 109.874-24.673 19.673-70.353 8.54-111.433.76-41.18-7.834-77.814-12.26-111.554-26.74-33.793-14.427-64.686-38.954-80.54-70.687-15.846-31.68-16.653-70.673-8.96-105.213 7.74-34.54 23.974-64.58 43.9-89.287 19.927-24.7 43.5-43.967 69.554-51.04 26.046-7.02 54.526-1.793 92.833-18.66 38.26-16.967 86.347-56.073 115.587-50.88M7786.231 131.564c30.367 4.913 43.28 52.62 63.254 94 19.926 41.38 46.86 76.38 42.173 108.807-4.64 32.38-40.9 62.033-61.62 102.02-20.72 40.033-25.947 90.353-51.62 109.726-25.727 19.327-71.947 7.76-113.667.14-41.82-7.666-79.186-11.34-112.946-26.06-33.807-14.673-64.014-40.446-80.66-72.813-16.654-32.32-19.747-71.327-13.44-106.687 6.36-35.36 22.126-67.02 43.4-91.413 21.273-24.4 48-41.433 75.446-48.06 27.454-6.58 55.574-2.707 93.567-19.64 37.94-17.033 85.753-54.927 116.113-50.02M8686.798 131.504c31.5 4.64 46.94 50.56 66.86 91.7 19.88 41.14 44.18 77.44 39.42 111.12-4.72 33.64-38.5 64.5-58.76 104.96-20.26 40.5-27.04 90.56-53.76 109.58-26.78 18.98-73.54 6.98-115.9-.48-42.46-7.5-80.56-10.42-114.34-25.38-33.82-14.92-63.34-41.94-80.78-74.94-17.46-32.96-22.84-71.98-17.92-108.16 4.98-36.18 20.28-69.46 42.9-93.54 22.62-24.1 52.5-38.9 81.34-45.08 28.86-6.14 56.62-3.62 94.3-20.62 37.62-17.1 85.16-53.78 116.64-49.16M9587.365 131.444c32.633 4.367 50.6 48.5 70.466 89.4 19.834 40.9 41.5 78.5 36.667 113.433-4.8 34.9-36.1 66.967-55.9 107.9-19.8 40.967-28.133 90.767-55.9 109.434-27.833 18.633-75.133 6.2-118.133-1.1-43.1-7.334-81.934-9.5-115.734-24.7-33.833-15.167-62.666-43.434-80.9-77.067-18.266-33.6-25.933-72.633-22.4-109.633 3.6-37 18.434-71.9 42.4-95.667 23.967-23.8 57-36.367 87.234-42.1 30.266-5.7 57.666-4.533 95.033-21.6 37.3-17.167 84.567-52.633 117.167-48.3M10487.931 131.384c33.767 4.093 54.26 46.44 74.074 87.1 19.786 40.66 38.82 79.56 33.913 115.747-4.88 36.16-33.7 69.433-53.04 110.84-19.34 41.433-29.227 90.973-58.04 109.286-28.887 18.287-76.727 5.42-120.367-1.72-43.74-7.166-83.306-8.58-117.126-24.02-33.847-15.413-61.994-44.926-81.02-79.193-19.074-34.24-29.027-73.287-26.88-111.107 2.22-37.82 16.586-74.34 41.9-97.793 25.313-23.5 61.5-33.833 93.126-39.12 31.674-5.26 58.714-5.447 95.767-22.58 36.98-17.233 83.973-51.487 117.693-47.44M11388.498 131.324c34.9 3.82 57.92 44.38 77.68 84.8 19.74 40.42 36.14 80.62 31.16 118.06-4.96 37.42-31.3 71.9-50.18 113.78-18.88 41.9-30.32 91.18-60.18 109.14-29.94 17.94-78.32 4.64-122.6-2.34-44.38-7-84.68-7.66-118.52-23.34-33.86-15.66-61.32-46.42-81.14-81.32-19.88-34.88-32.12-73.94-31.36-112.58.84-38.64 14.74-76.78 41.4-99.92 26.66-23.2 66-31.3 99.02-36.14 33.08-4.82 59.76-6.36 96.5-23.56 36.66-17.3 83.38-50.34 118.22-46.58M12289.065 131.264c36.033 3.547 61.58 42.32 81.286 82.5 19.694 40.18 33.46 81.68 28.407 120.373-5.04 38.68-28.9 74.367-47.32 116.72-18.42 42.367-31.413 91.387-62.32 108.994-30.993 17.593-79.913 3.86-124.833-2.96-45.02-6.834-86.054-6.74-119.914-22.66-33.873-15.907-60.646-47.914-81.26-83.447-20.686-35.52-35.213-74.593-35.84-114.053-.54-39.46 12.894-79.22 40.9-102.047 28.007-22.9 70.5-28.767 104.914-33.16 34.486-4.38 60.806-7.273 97.233-24.54 36.34-17.367 82.787-49.193 118.747-45.72M13189.631 131.204c37.167 3.273 65.24 40.26 84.894 80.2 19.646 39.94 30.78 82.74 25.653 122.687-5.12 39.94-26.5 76.833-44.46 119.66-17.96 42.833-32.507 91.593-64.46 108.846-32.047 17.247-81.507 3.08-127.067-3.58-45.66-6.666-87.426-5.82-121.306-21.98-33.887-16.153-59.974-49.406-81.38-85.573-21.494-36.16-38.307-75.247-40.32-115.527-1.92-40.28 11.046-81.66 40.4-104.173 29.353-22.6 75-26.233 110.806-30.18 35.894-3.94 61.854-8.187 97.967-25.52 36.02-17.433 82.193-48.047 119.273-44.86M14090.198 131.144c38.3 3 68.9 38.2 88.5 77.9 19.6 39.7 28.1 83.8 22.9 125-5.2 41.2-24.1 79.3-41.6 122.6s-33.6 91.8-66.6 108.7c-33.1 16.9-83.1 2.3-129.3-4.2-46.3-6.5-88.8-4.9-122.7-21.3-33.9-16.4-59.3-50.9-81.5-87.7-22.3-36.8-41.4-75.9-44.8-117-3.3-41.1 9.2-84.1 39.9-106.3 30.7-22.3 79.5-23.7 116.7-27.2 37.3-3.5 62.9-9.1 98.7-26.5 35.7-17.5 81.6-46.9 119.8-44" fill="#FAAF1F" stroke="none"/></svg>