<svg xmlns="http://www.w3.org/2000/svg" viewBox="0 0 14400 600" width="14400" height="600"><path d="M576.498 106.644c16.3 38.4-1.2 106.3 6.3 149.6s40 62 60.5 92.7c20.6 30.6 29.2 73.1 9.6 95.5-19.5 22.3-67.3 24.6-104.1 38.2-36.8 13.6-62.7 38.5-93.9 47.9-31.3 9.3-67.9 3.2-109.5-7.6-41.6-10.9-88-26.4-89-58.1-1-31.8 43.4-79.8 48-125.1 4.7-45.4-30.6-88-20.6-104.2 10-16.2 65.3-5.8 102.2-32.3 37-26.5 55.6-89.9 90-117 34.3-27.1 84.3-18.1 100.5 20.4M1477.591 108.191c18.1 36.006 4.567 101.2 13.287 144.193 8.72 42.993 39.707 63.78 58.213 95.407 18.6 31.533 24.727 73.806 4.434 96.813-20.2 22.913-66.914 26.64-103.52 40.553-36.607 13.907-63.207 38-95.114 47.407-32 9.313-69.32 4.04-109.586-7.727-40.274-11.86-83.307-30.126-85.387-62.446-2.08-32.414 36.807-78.88 39.767-123.594 3.06-44.806-29.98-87.766-19-104.746 10.986-16.974 65.993-7.78 103.206-32.747 37.307-24.967 56.807-84.093 91.474-110.107 34.58-26.02 84.22-19.106 102.226 16.994M2378.685 109.737c19.9 33.614 10.333 96.1 20.273 138.787 9.94 42.687 39.413 65.56 55.927 98.113 16.6 32.467 20.253 74.514-.734 98.127-20.9 23.527-66.526 28.68-102.94 42.907-36.413 14.213-63.713 37.5-96.326 46.913-32.7 9.327-70.74 4.88-109.674-7.853-38.946-12.82-78.613-33.854-81.773-66.794-3.16-33.026 30.213-77.96 31.533-122.086 1.42-44.214-29.36-87.534-17.4-105.294 11.974-17.746 66.687-9.76 104.214-33.193 37.613-23.433 58.013-78.287 92.946-103.213 34.86-24.94 84.14-20.114 103.954 13.586M3279.778 111.284c21.7 31.22 16.1 91 27.26 133.38 11.16 42.38 39.12 67.34 53.64 100.82 14.6 33.4 15.78 75.22-5.9 99.44-21.6 24.14-66.14 30.72-102.36 45.26-36.22 14.52-64.22 37-97.54 46.42-33.4 9.34-72.16 5.72-109.76-7.98-37.62-13.78-73.92-37.58-78.16-71.14-4.24-33.64 23.62-77.04 23.3-120.58-.22-43.62-28.74-87.3-15.8-105.84 12.96-18.52 67.38-11.74 105.22-33.64 37.92-21.9 59.22-72.48 94.42-96.32 35.14-23.86 84.06-21.12 105.68 10.18M4180.871 112.831c23.5 28.826 21.867 85.9 34.247 127.973 12.38 42.073 38.827 69.12 51.353 103.527 12.6 34.333 11.307 75.926-11.066 100.753-22.3 24.753-65.754 32.76-101.78 47.613-36.027 14.827-64.727 36.5-98.754 45.927-34.1 9.353-73.58 6.56-109.846-8.107-36.294-14.74-69.227-41.306-74.547-75.486-5.32-34.254 17.027-76.12 15.067-119.074-1.86-43.026-28.12-87.066-14.2-106.386 13.946-19.294 68.073-13.72 106.226-34.087 38.227-20.367 60.427-66.673 95.894-89.427 35.42-22.78 83.98-22.126 107.406 6.774M5081.965 114.377c25.3 26.434 27.633 80.8 41.233 122.567 13.6 41.767 38.533 70.9 49.067 106.233 10.6 35.267 6.833 76.634-16.234 102.067-23 25.367-65.366 34.8-101.2 49.967-35.833 15.133-65.233 36-99.966 45.433-34.8 9.367-75 7.4-109.934-8.233-34.966-15.7-64.533-45.034-70.933-79.834-6.4-34.866 10.433-75.2 6.833-117.566-3.5-42.434-27.5-86.834-12.6-106.934 14.934-20.066 68.767-15.7 107.234-34.533 38.533-18.833 61.633-60.867 97.366-82.533 35.7-21.7 83.9-23.134 109.134 3.366M5983.058 115.924c27.1 24.04 33.4 75.7 48.22 117.16 14.82 41.46 38.24 72.68 46.78 108.94 8.6 36.2 2.36 77.34-21.4 103.38-23.7 25.98-64.98 36.84-100.62 52.32-35.64 15.44-65.74 35.5-101.18 44.94-35.5 9.38-76.42 8.24-110.02-8.36-33.64-16.66-59.84-48.76-67.32-84.18-7.48-35.48 3.84-74.28-1.4-116.06-5.14-41.84-26.88-86.6-11-107.48 15.92-20.84 69.46-17.68 108.24-34.98 38.84-17.3 62.84-55.06 98.84-75.64 35.98-20.62 83.82-24.14 110.86-.04M6884.151 117.471c28.9 21.646 39.167 70.6 55.207 111.753 16.04 41.153 37.947 74.46 44.493 111.647 6.6 37.133-2.113 78.046-26.566 104.693-24.4 26.593-64.594 38.88-100.04 54.673-35.447 15.747-66.247 35-102.394 44.447-36.2 9.393-77.84 9.08-110.106-8.487-32.314-17.62-55.147-52.486-63.707-88.526-8.56-36.094-2.753-73.36-9.633-114.554-6.78-41.246-26.26-86.366-9.4-108.026 16.906-21.614 70.153-19.66 109.246-35.427 39.147-15.767 64.047-49.253 100.314-68.747 36.26-19.54 83.74-25.146 112.586-3.446M7785.245 119.017c30.7 19.254 44.933 65.5 62.193 106.347 17.26 40.847 37.653 76.24 42.207 114.353 4.6 38.067-6.587 78.754-31.734 106.007-25.1 27.207-64.206 40.92-99.46 57.027-35.253 16.053-66.753 34.5-103.606 43.953-36.9 9.407-79.26 9.92-110.194-8.613-30.986-18.58-50.453-56.214-60.093-92.874-9.64-36.706-9.347-72.44-17.867-113.046-8.42-40.654-25.64-86.134-7.8-108.574 17.894-22.386 70.847-21.64 110.254-35.873 39.453-14.233 65.253-43.447 101.786-61.853 36.54-18.46 83.66-26.154 114.314-6.854M8686.338 120.564c32.5 16.86 50.7 60.4 69.18 100.94 18.48 40.54 37.36 78.02 39.92 117.06 2.6 39-11.06 79.46-36.9 107.32-25.8 27.82-63.82 42.96-98.88 59.38-35.06 16.36-67.26 34-104.82 43.46-37.6 9.42-80.68 10.76-110.28-8.74-29.66-19.54-45.76-59.94-56.48-97.22-10.72-37.32-15.94-71.52-26.1-111.54-10.06-40.06-25.02-85.9-6.2-109.12 18.88-23.16 71.54-23.62 111.26-36.32 39.76-12.7 66.46-37.64 103.26-54.96 36.82-17.38 83.58-27.16 116.04-10.26M9587.431 122.111c34.3 14.466 56.467 55.3 76.167 95.533 19.7 40.233 37.067 79.8 37.633 119.767.6 39.933-15.533 80.166-42.066 108.633-26.5 28.433-63.434 45-98.3 61.733-34.867 16.667-67.767 33.5-106.034 42.967-38.3 9.433-82.1 11.6-110.366-8.867-28.334-20.5-41.067-63.666-52.867-101.566-11.8-37.934-22.533-70.6-34.333-110.034-11.7-39.466-24.4-85.666-4.6-109.666 19.866-23.934 72.233-25.6 112.266-36.767 40.067-11.167 67.667-31.833 104.734-48.067 37.1-16.3 83.5-28.166 117.766-13.666M10488.525 123.657c36.1 12.074 62.233 50.2 83.153 90.127 20.92 39.927 36.773 81.58 35.347 122.473-1.4 40.867-20.007 80.874-47.234 109.947-27.2 29.047-63.046 47.04-97.72 64.087-34.673 16.973-68.273 33-107.246 42.473-39 9.447-83.52 12.44-110.454-8.993-27.006-21.46-36.373-67.394-49.253-105.914-12.88-38.546-29.127-69.68-42.567-108.526-13.34-38.874-23.78-85.434-3-110.214 20.854-24.706 72.927-27.58 113.274-37.213 40.373-9.633 68.873-26.027 106.206-41.173 37.38-15.22 83.42-29.174 119.494-17.074M11389.618 125.204c37.9 9.68 68 45.1 90.14 84.72s36.48 83.36 33.06 125.18c-3.4 41.8-24.48 81.58-52.4 111.26-27.9 29.66-62.66 49.08-97.14 66.44-34.48 17.28-68.78 32.5-108.46 41.98-39.7 9.46-84.94 13.28-110.54-9.12-25.68-22.42-31.68-71.12-45.64-110.26-13.96-39.16-35.72-68.76-50.8-107.02-14.98-38.28-23.16-85.2-1.4-110.76 21.84-25.48 73.62-29.56 114.28-37.66 40.68-8.1 70.08-20.22 107.68-34.28 37.66-14.14 83.34-30.18 121.22-20.48M12290.711 126.751c39.7 7.286 73.767 40 97.127 79.313s36.187 85.14 30.773 127.887c-5.4 42.733-28.953 82.286-57.566 112.573-28.6 30.273-62.274 51.12-96.56 68.793-34.287 17.587-69.287 32-109.674 41.487-40.4 9.473-86.36 14.12-110.626-9.247-24.354-23.38-26.987-74.846-42.027-114.606-15.04-39.774-42.313-67.84-59.033-105.514-16.62-37.686-22.54-84.966.2-111.306 22.826-26.254 74.313-31.54 115.286-38.107 40.987-6.567 71.287-14.413 109.154-27.387 37.94-13.06 83.26-31.186 122.946-23.886M13191.805 128.297c41.5 4.894 79.533 34.9 104.113 73.907s35.893 86.92 28.487 130.593c-7.4 43.667-33.427 82.994-62.734 113.887-29.3 30.887-61.886 53.16-95.98 71.147-34.093 17.893-69.793 31.5-110.886 40.993-41.1 9.487-87.78 14.96-110.714-9.373-23.026-24.34-22.293-78.574-38.413-118.954-16.12-40.386-48.907-66.92-67.267-104.006-18.26-37.094-21.92-84.734 1.8-111.854 23.814-27.026 75.007-33.52 116.294-38.553 41.293-5.033 72.493-8.607 110.626-20.493 38.22-11.98 83.18-32.194 124.674-27.294M14092.898 129.844c43.3 2.5 85.3 29.8 111.1 68.5 25.8 38.7 35.6 88.7 26.2 133.3-9.4 44.6-37.9 83.7-67.9 115.2-30 31.5-61.5 55.2-95.4 73.5-33.9 18.2-70.3 31-112.1 40.5s-89.2 15.8-110.8-9.5c-21.7-25.3-17.6-82.3-34.8-123.3-17.2-41-55.5-66-75.5-102.5-19.9-36.5-21.3-84.5 3.4-112.4 24.8-27.8 75.7-35.5 117.3-39 41.6-3.5 73.7-2.8 112.1-13.6 38.5-10.9 83.1-33.2 126.4-30.7" fill="#E64360" stroke="none"/></svg>