<svg xmlns="http://www.w3.org/2000/svg" viewBox="0 0 14400 600" width="14400" height="600"><path d="M581.198 131.544c37.5 17.8 70.9 46.7 81 82.7 10.2 36.1-2.8 79.5-1.7 123.5 1.2 44 16.5 88.6 9.8 130.6-6.8 42-35.6 81.4-74.3 84-38.7 2.7-87.2-31.3-134.6-33.2-47.4-1.8-93.8 28.4-127.7 23-33.9-5.4-55.4-46.5-82.2-86.6-26.9-40.2-59-79.3-54-115.6 5.1-36.2 47.3-69.6 75.6-107.2 28.2-37.7 42.5-79.7 71.3-102.6 28.9-22.8 72.4-26.4 115-24.9 42.6 1.6 84.2 8.5 121.8 26.3M1480.805 131.891c37.813 18.32 72.206 46.233 82.72 81.933 10.613 35.787-2.56 79.553-1.514 123.887 1.14 44.333 16.494 89.233 8.84 129.993-7.746 40.76-38.5 77.373-77.46 79.913-38.96 2.64-86.026-28.7-132.346-29.993-46.314-1.2-91.98 27.56-125.06 21.593-33.087-5.96-53.68-46.733-80.22-86.2-26.627-39.56-59.1-77.72-54.687-113.413 4.513-35.593 45.913-68.727 73.567-106.347 27.56-37.72 41.366-80.026 69.94-103.753 28.666-23.633 72.193-28.6 114.62-26.767 42.433 1.927 83.686 10.834 121.6 29.154M2380.411 132.237c38.127 18.84 73.514 45.767 84.44 81.167 11.027 35.473-2.32 79.607-1.326 124.273 1.08 44.667 16.486 89.867 7.88 129.387-8.694 39.52-41.4 73.347-80.62 75.827-39.22 2.58-84.854-26.1-130.094-26.787-45.226-.6-90.16 26.72-122.42 20.187-32.273-6.52-51.96-46.967-78.24-85.8-26.353-38.92-59.2-76.14-55.373-111.227 3.927-34.987 44.527-67.853 71.533-105.493 26.92-37.74 40.234-80.354 68.58-104.907 28.434-24.467 71.987-30.8 114.24-28.633 42.267 2.253 83.174 13.166 121.4 32.006M3280.018 132.584c38.44 19.36 74.82 45.3 86.16 80.4 11.44 35.16-2.08 79.66-1.14 124.66 1.02 45 16.48 90.5 6.92 128.78-9.64 38.28-44.3 69.32-83.78 71.74-39.48 2.52-83.68-23.5-127.84-23.58-44.14 0-88.34 25.88-119.78 18.78-31.46-7.08-50.24-47.2-76.26-85.4-26.08-38.28-59.3-74.56-56.06-109.04 3.34-34.38 43.14-66.98 69.5-104.64 26.28-37.76 39.1-80.68 67.22-106.06 28.2-25.3 71.78-33 113.86-30.5 42.1 2.58 82.66 15.5 121.2 34.86M4179.625 132.931c38.753 19.88 76.126 44.833 87.88 79.633 11.853 34.847-1.84 79.713-.954 125.047.96 45.333 16.474 91.133 5.96 128.173-10.586 37.04-47.2 65.293-86.94 67.653-39.74 2.46-82.506-20.9-125.586-20.373-43.054.6-86.52 25.04-117.14 17.373-30.647-7.64-48.52-47.433-74.28-85-25.807-37.64-59.4-72.98-56.747-106.853 2.753-33.773 41.753-66.107 67.467-103.787 25.64-37.78 37.966-81.006 65.86-107.213 27.966-26.133 71.573-35.2 113.48-32.367 41.933 2.907 82.146 17.834 121 37.714M5079.231 133.277c39.067 20.4 77.434 44.367 89.6 78.867 12.267 34.533-1.6 79.767-.766 125.433.9 45.667 16.466 91.767 5 127.567-11.534 35.8-50.1 61.267-90.1 63.567-40 2.4-81.334-18.3-123.334-17.167-41.966 1.2-84.7 24.2-114.5 15.967-29.833-8.2-46.8-47.667-72.3-84.6-25.533-37-59.5-71.4-57.433-104.667 2.167-33.167 40.367-65.233 65.433-102.933 25-37.8 36.834-81.334 64.5-108.367 27.734-26.967 71.367-37.4 113.1-34.233 41.767 3.233 81.634 20.166 120.8 40.566M5978.838 133.624c39.38 20.92 78.74 43.9 91.32 78.1 12.68 34.22-1.36 79.82-.58 125.82.84 46 16.46 92.4 4.04 126.96-12.48 34.56-53 57.24-93.26 59.48-40.26 2.34-80.16-15.7-121.08-13.96-40.88 1.8-82.88 23.36-111.86 14.56-29.02-8.76-45.08-47.9-70.32-84.2-25.26-36.36-59.6-69.82-58.12-102.48 1.58-32.56 38.98-64.36 63.4-102.08 24.36-37.82 35.7-81.66 63.14-109.52 27.5-27.8 71.16-39.6 112.72-36.1 41.6 3.56 81.12 22.5 120.6 43.42M6878.445 133.971c39.693 21.44 80.046 43.433 93.04 77.333 13.093 33.907-1.12 79.873-.394 126.207.78 46.333 16.454 93.033 3.08 126.353-13.426 33.32-55.9 53.213-96.42 55.393-40.52 2.28-78.986-13.1-118.826-10.753-39.794 2.4-81.06 22.52-109.22 13.153-28.207-9.32-43.36-48.133-68.34-83.8-24.987-35.72-59.7-68.24-58.807-100.293.993-31.953 37.593-63.487 61.367-101.227 23.72-37.84 34.566-81.986 61.78-110.673 27.266-28.633 70.953-41.8 112.34-37.967 41.433 3.887 80.606 24.834 120.4 46.274M7778.051 134.317c40.007 21.96 81.354 42.967 94.76 76.567 13.507 33.593-.88 79.927-.206 126.593.72 46.667 16.446 93.667 2.12 125.747-14.374 32.08-58.8 49.187-99.58 51.307-40.78 2.22-77.814-10.5-116.574-7.547-38.706 3-79.24 21.68-106.58 11.747-27.393-9.88-41.64-48.367-66.36-83.4-24.713-35.08-59.8-66.66-59.493-98.107.407-31.347 36.207-62.613 59.333-100.373 23.08-37.86 33.434-82.314 60.42-111.827 27.034-29.467 70.747-44 111.96-39.833 41.267 4.213 80.094 27.166 120.2 49.126M8677.658 134.664c40.32 22.48 82.66 42.5 96.48 75.8 13.92 33.28-.64 79.98-.02 126.98.66 47 16.44 94.3 1.16 125.14-15.32 30.84-61.7 45.16-102.74 47.22-41.04 2.16-76.64-7.9-114.32-4.34-37.62 3.6-77.42 20.84-103.94 10.34-26.58-10.44-39.92-48.6-64.38-83-24.44-34.44-59.9-65.08-60.18-95.92-.18-30.74 34.82-61.74 57.3-99.52 22.44-37.88 32.3-82.64 59.06-112.98 26.8-30.3 70.54-46.2 111.58-41.7 41.1 4.54 79.58 29.5 120 51.98M9577.265 135.011c40.633 23 83.966 42.033 98.2 75.033 14.333 32.967-.4 80.033.166 127.367.6 47.333 16.434 94.933.2 124.533-16.266 29.6-64.6 41.133-105.9 43.133-41.3 2.1-75.466-5.3-112.066-1.133-36.534 4.2-75.6 20-101.3 8.933-25.767-11-38.2-48.833-62.4-82.6-24.167-33.8-60-63.5-60.867-93.733-.767-30.133 33.433-60.867 55.267-98.667 21.8-37.9 31.166-82.966 57.7-114.133 26.566-31.133 70.333-48.4 111.2-43.567 40.933 4.867 79.066 31.834 119.8 54.834M10476.871 135.357c40.947 23.52 85.274 41.567 99.92 74.267 14.747 32.653-.16 80.087.354 127.753.54 47.667 16.426 95.567-.76 123.927-17.214 28.36-67.5 37.107-109.06 39.047-41.56 2.04-74.294-2.7-109.814 2.073-35.446 4.8-73.78 19.16-98.66 7.527-24.953-11.56-36.48-49.067-60.42-82.2-23.893-33.16-60.1-61.92-61.553-91.547-1.353-29.527 32.047-59.993 53.233-97.813 21.16-37.92 30.034-83.294 56.34-115.287 26.334-31.967 70.127-50.6 110.82-45.433 40.767 5.193 78.554 34.166 119.6 57.686M11376.478 135.704c41.26 24.04 86.58 41.1 101.64 73.5 15.16 32.34.08 80.14.54 128.14.48 48 16.42 96.2-1.72 123.32-18.16 27.12-70.4 33.08-112.22 34.96-41.82 1.98-73.12-.1-107.56 5.28-34.36 5.4-71.96 18.32-96.02 6.12-24.14-12.12-34.76-49.3-58.44-81.8-23.62-32.52-60.2-60.34-62.24-89.36-1.94-28.92 30.66-59.12 51.2-96.96 20.52-37.94 28.9-83.62 54.98-116.44 26.1-32.8 69.92-52.8 110.44-47.3 40.6 5.52 78.04 36.5 119.4 60.54M12276.085 136.051c41.573 24.56 87.886 40.633 103.36 72.733 15.573 32.027.32 80.193.726 128.527.42 48.333 16.414 96.833-2.68 122.713-19.106 25.88-73.3 29.053-115.38 30.873-42.08 1.92-71.946 2.5-105.306 8.487-33.274 6-70.14 17.48-93.38 4.713-23.327-12.68-33.04-49.533-56.46-81.4-23.347-31.88-60.3-58.76-62.927-87.173-2.527-28.313 29.273-58.247 49.167-96.107 19.88-37.96 27.766-83.946 53.62-117.593 25.866-33.633 69.713-55 110.06-49.167 40.433 5.847 77.526 38.834 119.2 63.394M13175.691 136.397c41.887 25.08 89.194 40.167 105.08 71.967 15.987 31.713.56 80.247.914 128.913.36 48.667 16.406 97.467-3.64 122.107-20.054 24.64-76.2 25.027-118.54 26.787-42.34 1.86-70.774 5.1-103.054 11.693-32.186 6.6-68.32 16.64-90.74 3.307-22.513-13.24-31.32-49.767-54.48-81-23.073-31.24-60.4-57.18-63.613-84.987-3.113-27.707 27.887-57.373 47.133-95.253 19.24-37.98 26.634-84.274 52.26-118.747 25.634-34.467 69.507-57.2 109.68-51.033 40.267 6.173 77.014 41.166 119 66.246M14075.298 136.744c42.2 25.6 90.5 39.7 106.8 71.2 16.4 31.4.8 80.3 1.1 129.3.3 49 16.4 98.1-4.6 121.5-21 23.4-79.1 21-121.7 22.7-42.6 1.8-69.6 7.7-100.8 14.9-31.1 7.2-66.5 15.8-88.1 1.9-21.7-13.8-29.6-50-52.5-80.6-22.8-30.6-60.5-55.6-64.3-82.8-3.7-27.1 26.5-56.5 45.1-94.4 18.6-38 25.5-84.6 50.9-119.9 25.4-35.3 69.3-59.4 109.3-52.9 40.1 6.5 76.5 43.5 118.8 69.1" fill="#41B8F0" stroke="none"/></svg>